#!OML:ASF H:\Male1\Project 1\Capture day 1\Session 1\Male1.ASF
:FULLY-SPECIFIED
:DEGREES
620
root 41.853 14.4502 3.17295 181.772 10.7467 -176.866
lowerback 26.0428 0.538951 -1.92002
upperback 13.0129 3.45231 0.968689
thorax -0.10583 2.86978 1.26959
lowerneck 5.32927 11.5275 14.3368
upperneck -16.1106 14.9737 -29.282
head -1.84052 9.14362 -11.8991
rclavicle -4.30369e-014 3.73467e-014
rhumerus 9.48733 -2.8485 -45.9183
rradius 126.12
rwrist -15.2295
rhand -38.011 -4.0372
rfingers 7.12502
rthumb -11.0499 -33.7263
lclavicle -4.30369e-014 3.73467e-014
lhumerus -9.89528 16.2916 39.2599
lradius 114.857
lwrist -15.5892
lhand -36.1593 28.8157
lfingers 7.12502
lthumb -9.26353 58.5922
rfemur -32.5848 -0.405609 17.6379
rtibia 48.8162
rfoot -16.6529 -13.7528
rtoes -41.7429
lfemur -25.8978 -13.3879 4.10094
ltibia 48.5246
lfoot -20.0789 17.0852
ltoes -11.9444
621
root 41.6901 14.4466 3.13199 181.451 10.6929 -176.933
lowerback 25.7858 0.559505 -1.94083
upperback 13.0728 3.48491 0.932926
thorax 0.0821172 2.88841 1.25107
lowerneck 5.41682 11.4682 14.3109
upperneck -15.9095 14.9172 -29.128
head -1.83256 9.09005 -11.8422
rclavicle -1.27471e-014 1.15792e-014
rhumerus 9.59238 -2.77218 -45.5419
rradius 126.147
rwrist -15.2558
rhand -38.036 -4.04353
rfingers 7.12502
rthumb -11.074 -33.7314
lclavicle -1.27471e-014 1.15792e-014
lhumerus -9.63258 16.5537 39.3477
lradius 114.59
lwrist -15.6218
lhand -35.8357 29.3225
lfingers 7.12502
lthumb -8.95127 59.1126
rfemur -31.9909 -0.257224 16.802
rtibia 48.4448
rfoot -16.165 -14.0748
rtoes -42.5207
lfemur -24.5338 -14.6003 4.30013
ltibia 46.414
lfoot -19.4444 16.6883
ltoes -13.2615
622
root 41.5187 14.4416 3.09416 181.18 10.6058 -176.955
lowerback 25.5498 0.568243 -1.95173
upperback 13.1345 3.50724 0.923998
thorax 0.261514 2.90211 1.25778
lowerneck 5.47346 11.4114 14.3149
upperneck -15.7148 14.8631 -28.9838
head -1.81617 9.03641 -11.7908
rclavicle -2.23633e-015 7.72775e-015
rhumerus 9.71262 -2.69505 -45.2788
rradius 126.149
rwrist -15.2834
rhand -38.0496 -4.01618
rfingers 7.12502
rthumb -11.0871 -33.7033
lclavicle -2.23633e-015 7.72775e-015
lhumerus -9.38297 16.7856 39.524
lradius 114.373
lwrist -15.7132
lhand -35.5717 29.5758
lfingers 7.12502
lthumb -8.69646 59.3766
rfemur -31.4249 -0.0358742 15.9668
rtibia 48.0234
rfoot -15.6535 -14.4315
rtoes -43.1913
lfemur -23.452 -15.5674 4.29818
ltibia 44.6979
lfoot -18.9215 16.3038
ltoes -14.765
623
root 41.3382 14.4363 3.06115 180.966 10.4981 -176.943
lowerback 25.3539 0.570458 -1.96015
upperback 13.1928 3.52313 0.934296
thorax 0.417505 2.91255 1.28329
lowerneck 5.50023 11.3603 14.3597
upperneck -15.542 14.8145 -28.8504
head -1.79417 8.98473 -11.7479
rclavicle -1.90336e-014 4.62174e-015
rhumerus 9.82285 -2.62003 -45.1348
rradius 126.132
rwrist -15.298
rhand -38.062 -3.97769
rfingers 7.12502
rthumb -11.0991 -33.6642
lclavicle -1.90336e-014 4.62174e-015
lhumerus -9.15675 16.9679 39.7686
lradius 114.242
lwrist -15.8084
lhand -35.3768 29.6383
lfingers 7.12502
lthumb -8.50839 59.4469
rfemur -30.8895 0.279956 15.121
rtibia 47.5279
rfoot -15.1067 -14.8117
rtoes -43.7064
lfemur -22.6889 -16.1645 4.07867
ltibia 43.4887
lfoot -18.6495 15.9779
ltoes -16.2277
624
root 41.1485 14.4333 3.03404 180.819 10.389 -176.913
lowerback 25.1979 0.579387 -1.9847
upperback 13.2454 3.54438 0.957815
thorax 0.547071 2.92446 1.32857
lowerneck 5.49537 11.3101 14.4582
upperneck -15.4039 14.7647 -28.7382
head -1.76914 8.93296 -11.7205
rclavicle -4.30866e-014 7.37988e-015
rhumerus 9.90023 -2.56803 -45.0938
rradius 126.109
rwrist -15.2964
rhand -38.0798 -3.93546
rfingers 7.12502
rthumb -11.1163 -33.621
lclavicle -4.30866e-014 7.37988e-015
lhumerus -8.94474 17.0776 40.0797
lradius 114.202
lwrist -15.8735
lhand -35.3324 29.5883
lfingers 7.12502
lthumb -8.46557 59.3986
rfemur -30.3927 0.718747 14.249
rtibia 46.9355
rfoot -14.5283 -15.2219
rtoes -44.0118
lfemur -22.2992 -16.3478 3.64886
ltibia 42.849
lfoot -18.5699 15.7652
ltoes -17.7309
625
root 40.9498 14.4332 3.01357 180.749 10.2933 -176.864
lowerback 25.0826 0.601102 -2.02369
upperback 13.293 3.57929 0.991456
thorax 0.650356 2.94212 1.38729
lowerneck 5.45983 11.2552 14.6043
upperneck -15.3141 14.7044 -28.6515
head -1.74727 8.87847 -11.7114
rclavicle -2.08724e-015 1.41634e-015
rhumerus 9.9373 -2.55707 -45.1391
rradius 126.091
rwrist -15.2872
rhand -38.108 -3.87901
rfingers 7.12502
rthumb -11.1434 -33.5631
lclavicle -2.08724e-015 1.41634e-015
lhumerus -8.73351 17.1083 40.4482
lradius 114.25
lwrist -15.9479
lhand -35.4068 29.5062
lfingers 7.12502
lthumb -8.5374 59.3136
rfemur -29.9502 1.28315 13.3551
rtibia 46.2464
rfoot -13.9305 -15.6655
rtoes -44.049
lfemur -22.3021 -16.1718 3.07027
ltibia 42.7709
lfoot -18.6436 15.578
ltoes -19.124
626
root 40.7422 14.4357 2.99937 180.719 10.2518 -176.804
lowerback 25.0478 0.643575 -2.0804
upperback 13.3429 3.64148 1.0246
thorax 0.71683 2.97457 1.44497
lowerneck 5.39965 11.193 14.78
upperneck -15.2783 14.6286 -28.5907
head -1.73419 8.82042 -11.7192
rclavicle 1.5704e-014 9.93923e-016
rhumerus 9.94517 -2.58646 -45.2566
rradius 126.081
rwrist -15.2825
rhand -38.1455 -3.81131
rfingers 7.12502
rthumb -11.1796 -33.4935
lclavicle 1.5704e-014 9.93923e-016
lhumerus -8.52262 17.06 40.8412
lradius 114.374
lwrist -16.0713
lhand -35.5467 29.4277
lfingers 7.12502
lthumb -8.67237 59.2295
rfemur -29.5468 1.9847 12.4342
rtibia 45.484
rfoot -13.3002 -16.1394
rtoes -43.8451
lfemur -22.6053 -15.7646 2.39072
ltibia 43.1594
lfoot -18.8502 15.3316
ltoes -20.1999
627
root 40.5265 14.4394 2.9906 180.718 10.3063 -176.756
lowerback 25.095 0.717708 -2.17531
upperback 13.3913 3.73811 1.05245
thorax 0.740867 3.02366 1.50589
lowerneck 5.32535 11.1313 14.9487
upperneck -15.287 14.5474 -28.5569
head -1.73009 8.76563 -11.7377
rclavicle -1.8487e-014 1.63997e-015
rhumerus 9.95626 -2.62888 -45.4223
rradius 126.072
rwrist -15.2945
rhand -38.1801 -3.73585
rfingers 7.12502
rthumb -11.213 -33.4162
lclavicle -1.8487e-014 1.63997e-015
lhumerus -8.38562 16.9359 41.2818
lradius 114.597
lwrist -16.2891
lhand -35.7659 29.3279
lfingers 7.12502
lthumb -8.88394 59.1209
rfemur -29.2226 2.82884 11.4609
rtibia 44.7094
rfoot -12.6989 -16.5981
rtoes -43.2039
lfemur -23.1134 -15.2285 1.64423
ltibia 43.869
lfoot -19.118 15.035
ltoes -21.1253
628
root 40.3033 14.4427 2.98642 180.718 10.4751 -176.731
lowerback 25.2437 0.817403 -2.3041
upperback 13.437 3.86169 1.065
thorax 0.712876 3.08668 1.55715
lowerneck 5.2364 11.0857 15.0762
upperneck -15.318 14.4817 -28.5361
head -1.72848 8.72305 -11.7525
rclavicle 1.2921e-015 1.26725e-014
rhumerus 10.0058 -2.65021 -45.6229
rradius 126.048
rwrist -15.3238
rhand -38.2092 -3.67181
rfingers 7.12502
rthumb -11.241 -33.3506
lclavicle 1.2921e-015 1.26725e-014
lhumerus -8.32912 16.7638 41.7191
lradius 114.894
lwrist -16.5699
lhand -35.9784 29.1925
lfingers 7.12502
lthumb -9.08894 58.9767
rfemur -29.0134 3.7276 10.4619
rtibia 44.0104
rfoot -12.0041 -17.0884
rtoes -42.4344
lfemur -23.7078 -14.6174 0.843805
ltibia 44.7512
lfoot -19.3859 14.7156
ltoes -22.1235
